HIERARCHY
ROOT Hips
{
	OFFSET 0.000000 0.000000 0.000000 
	CHANNELS 6 Xposition Yposition Zposition Zrotation Yrotation Xrotation
	JOINT LeftUpLeg
	{
		OFFSET 1.363060 -1.794630 0.839290 
		CHANNELS 3 Zrotation Yrotation Xrotation
		JOINT LeftLeg
		{
			OFFSET 2.448110 -6.726130 0.000000 
			CHANNELS 3 Zrotation Yrotation Xrotation
			JOINT LeftFoot
			{
				OFFSET 2.562200 -7.039590 0.000000 
				CHANNELS 3 Zrotation Yrotation Xrotation
				JOINT LeftToeBase
				{
					OFFSET 0.157640 -0.433110 2.322550 
					CHANNELS 3 Zrotation Yrotation Xrotation
					End Site
					{
						OFFSET 0.000000 0.000000 0.000000 
					}
				}
			}
		}
	}
	JOINT RightUpLeg
	{
		OFFSET -1.305520 -1.794630 0.839290 
		CHANNELS 3 Zrotation Yrotation Xrotation
		JOINT RightLeg
		{
			OFFSET -2.542530 -6.985550 0.000000 
			CHANNELS 3 Zrotation Yrotation Xrotation
			JOINT RightFoot
			{
				OFFSET -2.568260 -7.056230 0.000000 
				CHANNELS 3 Zrotation Yrotation Xrotation
				JOINT RightToeBase
				{
					OFFSET -0.164730 -0.452590 2.363150 
					CHANNELS 3 Zrotation Yrotation Xrotation
					End Site
					{
						OFFSET 0.000000 0.000000 0.000000 
					}
				}
			}
		}
	}
	JOINT Spine
	{
		OFFSET 0.028270 2.035590 -0.193380 
		CHANNELS 3 Zrotation Yrotation Xrotation
		JOINT Spine1
		{
			OFFSET 0.056720 2.048850 -0.042750 
			CHANNELS 3 Zrotation Yrotation Xrotation
			JOINT Neck1
			{
				OFFSET -0.054170 1.746240 0.172020 
				CHANNELS 3 Zrotation Yrotation Xrotation
				JOINT Head
				{
					OFFSET 0.104070 1.761360 -0.123970 
					CHANNELS 3 Zrotation Yrotation Xrotation
					End Site
					{
						OFFSET 0.000000 0.000000 0.000000 
					}
				}
			}
			JOINT LeftArm
			{
				OFFSET 3.362410 1.200890 -0.311210 
				CHANNELS 3 Zrotation Yrotation Xrotation
				JOINT LeftForeArm
				{
					OFFSET 4.983000 -0.000000 -0.000000 
					CHANNELS 3 Zrotation Yrotation Xrotation
					JOINT LeftHand
					{
						OFFSET 3.483560 -0.000000 -0.000000 
						CHANNELS 3 Zrotation Yrotation Xrotation
						JOINT LeftHandIndex1
						{
							OFFSET 0.715260 -0.000000 -0.000000 
							CHANNELS 3 Zrotation Yrotation Xrotation
							End Site
							{
								OFFSET 0.000000 0.000000 0.000000 
							}
						}
					}
				}
			}
			JOINT RightArm
			{
				OFFSET -3.136600 1.374050 -0.404650 
				CHANNELS 3 Zrotation Yrotation Xrotation
				JOINT RightForeArm
				{
					OFFSET -5.241900 -0.000000 -0.000000 
					CHANNELS 3 Zrotation Yrotation Xrotation
					JOINT RightHand
					{
						OFFSET -3.444170 -0.000000 -0.000000 
						CHANNELS 3 Zrotation Yrotation Xrotation
						JOINT RightHandIndex1
						{
							OFFSET -0.622530 -0.000000 -0.000000 
							CHANNELS 3 Zrotation Yrotation Xrotation
							End Site
							{
								OFFSET 0.000000 0.000000 0.000000 
							}
						}
					}
				}
			}
		}
	}
}
MOTION
Frames: 12
Frame Time: 0.041667
31.598465 17.395994 -28.689027 -1.395439 -45.635421 12.479391 -18.878653 7.956504 -44.496400 5.212840 14.474843 44.589903 -2.328072 8.419473 1.090115 0.002800 0.344300 0.945900 2.616976 16.531159 -66.681525 -14.394911 -21.205205 70.229925 3.731904 -12.710330 -0.916248 -0.468900 4.392000 -12.182200 0.901549 -4.698274 -0.564511 -8.962312 -1.909704 4.067191 -1.478036 3.405568 -6.916889 -1.803600 1.652100 -8.464200 8.422285 -62.484918 -16.316374 52.359531 -49.164521 -32.595674 -0.489700 -3.605219 -53.962795 -7.125000 0.000000 0.000000 83.596273 17.530145 46.321848 -109.699079 55.737793 -79.105027 0.644619 -0.822539 11.105828 7.125000 0.000000 0.000000 
31.589741 17.428165 -28.647478 -1.444941 -45.452964 12.432056 -18.891034 8.186357 -44.153129 5.081521 14.326819 44.162863 -2.265349 8.301432 1.332164 0.003400 0.378700 1.040600 2.939040 16.471277 -66.421368 -13.758772 -21.052095 68.457681 3.795796 -12.856203 -1.039704 -0.599700 4.957200 -13.786600 0.767326 -4.485271 -0.525221 -9.718961 -1.636735 4.655652 -1.572331 3.000632 -6.886147 -1.936000 1.403900 -8.409300 16.648428 -59.206717 -22.758443 54.022729 -49.753270 -34.500237 -0.039018 -4.014544 -59.012271 -7.125000 0.000000 0.000000 84.299337 17.019290 45.507893 -109.943450 55.760817 -79.302197 0.649302 -0.875972 11.325073 7.125000 0.000000 0.000000 
31.577309 17.455210 -28.595460 -1.329586 -45.431002 12.201194 -19.060250 8.556158 -43.859238 4.965648 14.211221 43.822474 -2.151919 8.082591 1.487525 0.003700 0.394600 1.084300 3.139657 16.443626 -66.020712 -13.118247 -20.877107 66.691075 3.792418 -12.812704 -1.173763 -0.633500 5.092700 -14.173200 0.721170 -4.097671 -0.469869 -10.185399 -1.376148 4.946203 -1.694977 2.566525 -6.814403 -2.140700 1.136800 -8.325700 17.555265 -60.380252 -23.329133 54.770513 -50.053239 -34.930815 -0.096560 -3.920300 -59.113739 -7.125000 0.000000 0.000000 82.510378 15.333476 43.563255 -112.795053 55.357009 -82.008592 0.639847 -0.799139 9.883494 7.125000 0.000000 0.000000 
31.563895 17.476039 -28.553038 -1.357066 -45.359842 12.121768 -19.111494 8.919087 -43.639483 4.859719 14.107793 43.494178 -2.008719 7.803776 1.756724 0.006300 0.512600 1.408500 3.472794 16.418526 -65.675829 -12.469486 -20.672853 64.897828 3.870452 -13.004159 -1.411996 -0.673300 5.247000 -14.614500 0.715016 -4.289475 -0.447036 -10.245639 -1.443911 5.072709 -1.681951 2.659829 -6.796965 -2.051900 1.213100 -8.304900 17.016257 -60.072013 -22.560326 55.314062 -50.224244 -35.445430 -0.127072 -3.927324 -59.145803 -7.125000 0.000000 0.000000 82.815151 15.273934 44.079646 -112.611783 55.379418 -81.754832 0.653790 -0.822707 10.070453 7.125000 0.000000 0.000000 
31.554190 17.507010 -28.506690 -1.224955 -45.214853 11.993064 -19.195515 8.959433 -43.352316 4.754740 14.017562 43.196620 -1.939954 7.673429 1.830348 0.008600 0.597300 1.641500 3.665862 16.258625 -65.285971 -11.813548 -20.441432 63.057881 3.951768 -13.198292 -1.603289 -0.728500 5.453500 -15.206500 0.743776 -4.231120 -0.436875 -10.087461 -1.447492 5.159692 -1.765018 2.593396 -6.710650 -2.114300 1.183200 -8.246400 16.443579 -60.324940 -21.996636 55.871115 -50.420148 -35.929380 -0.112112 -3.910079 -59.238424 -7.125000 0.000000 0.000000 82.665679 14.832237 43.991705 -112.713699 55.399778 -81.840545 0.639981 -0.834313 10.074161 7.125000 0.000000 0.000000 
31.542085 17.520424 -28.479536 -1.154235 -44.901960 12.048032 -19.278813 9.045032 -43.296151 4.662638 13.932606 42.928197 -1.798782 7.390859 2.129525 0.010300 0.655700 1.802000 3.870775 16.084824 -65.157267 -11.160951 -20.198272 61.221153 4.064234 -13.484910 -1.820413 -0.741700 5.501700 -15.345300 0.754304 -4.444414 -0.422424 -10.105575 -1.530599 5.301938 -1.696759 2.691940 -6.700147 -2.027700 1.246400 -8.229100 15.727854 -60.401866 -21.491898 56.083984 -50.477111 -36.139351 -0.123096 -3.880565 -58.902858 -7.125000 0.000000 0.000000 82.815860 14.727346 44.316604 -112.654664 55.415143 -81.716242 0.647444 -0.839233 10.124661 7.125000 0.000000 0.000000 
31.523764 17.519551 -28.441803 -0.920895 -44.607662 11.938099 -19.566515 9.342832 -43.298136 4.567184 13.845865 42.683174 -1.557686 6.905569 2.513251 0.012800 0.730800 2.008400 3.941368 15.887361 -64.970385 -10.525362 -19.943381 59.401216 4.189124 -13.799576 -1.944222 -0.770000 5.603300 -15.637700 0.743336 -4.763843 -0.401575 -10.296122 -1.630039 5.488840 -1.661677 2.770928 -6.622539 -1.963500 1.297900 -8.140600 15.029144 -60.568751 -21.101798 56.066468 -50.467513 -36.157585 -0.025418 -3.848948 -58.385520 -7.125000 0.000000 0.000000 82.872480 14.546838 44.626127 -112.852619 55.368377 -81.821915 0.656164 -0.852653 10.015981 7.125000 0.000000 0.000000 
31.510241 17.554558 -28.400799 -0.905991 -44.580422 11.845342 -19.527649 9.432561 -42.977089 4.455099 13.749330 42.329627 -1.533682 6.875655 2.654406 0.017600 0.855900 2.352400 4.188014 15.840135 -64.334862 -9.814275 -19.613202 57.378080 4.265600 -13.964513 -1.918865 -0.745200 5.514100 -15.380800 0.807128 -4.393491 -0.411462 -9.753452 -1.576913 5.398896 -1.674036 2.577068 -6.596850 -1.965800 1.219100 -8.184900 14.179433 -61.034130 -20.314108 56.745781 -50.706967 -36.720511 -0.052754 -3.825326 -58.454090 -7.125000 0.000000 0.000000 82.702193 13.904447 44.415311 -112.714467 55.468267 -81.719004 0.656406 -0.844658 10.175956 7.125000 0.000000 0.000000 
31.496937 17.589782 -28.350416 -0.813172 -44.443848 11.680850 -19.538969 9.458148 -42.577915 4.338101 13.642167 41.968040 -1.521958 6.866954 2.771008 0.022700 0.972000 2.671900 4.404485 15.607384 -63.626337 -9.109713 -19.249755 55.318623 4.372327 -14.198895 -1.681959 -0.805000 5.726000 -15.991600 0.847970 -4.778072 -0.411396 -9.459583 -1.803074 5.423290 -1.691106 2.838598 -6.544546 -1.842900 1.405600 -8.161400 12.700541 -60.245412 -18.902579 57.155966 -50.810915 -37.243403 -0.032590 -3.853062 -58.459717 -7.125000 0.000000 0.000000 84.157556 14.786224 46.027905 -110.207880 55.888836 -79.295556 0.650774 -0.924510 11.384911 7.125000 0.000000 0.000000 
31.478943 17.610393 -28.295344 -0.709503 -44.246946 11.506001 -19.606065 9.570860 -42.226402 4.225516 13.526665 41.621871 -1.461092 6.757948 2.951619 0.029200 1.103900 3.034700 4.572204 15.368235 -62.951691 -8.415547 -18.869314 53.274280 4.461037 -14.387582 -1.413482 -0.784700 5.655100 -15.786800 0.834878 -5.054775 -0.383780 -9.653703 -1.880787 5.621144 -1.664416 2.936733 -6.487121 -1.772500 1.469000 -8.080600 12.257463 -60.069261 -18.306855 57.626532 -50.941898 -37.661578 -0.103797 -3.824829 -58.344332 -7.125000 0.000000 0.000000 84.257480 14.586954 46.373890 -110.231290 55.882606 -79.234402 0.659631 -0.940691 11.352756 7.125000 0.000000 0.000000 
31.453860 17.633185 -28.251505 -0.713967 -44.351107 11.395257 -19.588663 9.864392 -41.970272 4.123700 13.433359 41.283197 -1.424694 6.710316 3.149482 0.035300 1.212400 3.333400 4.797787 15.424228 -62.210835 -7.727710 -18.463683 51.257243 4.498072 -14.453585 -1.087677 -0.741300 5.500000 -15.340300 0.885196 -4.603443 -0.379206 -9.191273 -1.785729 5.593842 -1.741360 2.699604 -6.423069 -1.854900 1.353300 -8.083600 11.291478 -60.748833 -17.680213 58.040515 -51.089786 -37.976203 -0.108783 -3.769426 -58.080240 -7.125000 0.000000 0.000000 83.896454 13.805532 45.970027 -110.398714 55.940689 -79.418437 0.642708 -0.925084 11.352740 7.125000 0.000000 0.000000 
31.438811 17.648453 -28.204394 -0.625548 -43.931588 11.371733 -19.574195 9.613882 -41.649933 4.034709 13.339065 41.011182 -1.429044 6.721443 3.242281 0.041300 1.311200 3.605500 4.900794 15.073239 -61.709605 -7.084448 -18.054236 49.284620 4.603210 -14.697690 -0.647717 -0.801400 5.713800 -15.956200 0.891767 -5.011335 -0.365017 -9.351311 -1.925537 5.762080 -1.668759 2.815205 -6.404910 -1.727300 1.436900 -8.051000 10.412177 -60.644382 -16.903096 58.354548 -51.188140 -38.326942 -0.001889 -3.766830 -57.790243 -7.125000 0.000000 0.000000 84.060965 13.671422 46.435928 -110.238408 55.966299 -79.162727 0.625197 -0.948860 11.431680 7.125000 0.000000 0.000000 
